# xmcd
#
# Track frame offsets:
#	172
#	17652
#	33765
#	52917
#	72105
#	91705
#	109657
#	126057
#	139445
#	156037
#	171470
#	187060
#
# Disc length: 2716 seconds
#
# Revision: 0
# Processed by: cddbd v1.4PL0 Copyright (c) Steve Scherf et al.
# Submitted via: dBpowerAMP V4.0
#
DISCID=9a0a9a0c
DTITLE=jo lemaire - Flagrant Délices
DYEAR=1900
DGENRE=
TTITLE0=A Quoi Tu Joues
TTITLE1=La Saison Des Amours
TTITLE2=Croire Qu'on Est Les Mémes
TTITLE3=Entre Nous
TTITLE4=Alcatraz
TTITLE5=Bord A Bord
TTITLE6=Les Hommes, Les Femmes
TTITLE7=Cerise
TTITLE8=Vagabond
TTITLE9=Donne
TTITLE10=Madame Leblanc
TTITLE11=Restons Amis
EXTD=
EXTT0=
EXTT1=
EXTT2=
EXTT3=
EXTT4=
EXTT5=
EXTT6=
EXTT7=
EXTT8=
EXTT9=
EXTT10=
EXTT11=
PLAYORDER=
